# xmcd
#
# Track frame offsets:
#	150
#	16362
#	31707
#	46552
#	64857
#	80100
#	96230
#	115957
#	132212
#	149145
#	167827
#
# Disc length: 2450 seconds
#
# Revision: 6
# Processed by: cddbd v1.5.2PL0 Copyright (c) Steve Scherf et al.
# Submitted via: audiograbber 1.83.01
#
DISCID=9409900b
DTITLE=Aqua - Aquarium
DYEAR=1997
DGENRE=Pop
TTITLE0=Happy boys and girls
TTITLE1=My oh my
TTITLE2=Barbie girl
TTITLE3=Good morning sunshine
TTITLE4=Doctor Jones
TTITLE5=Heat of the night
TTITLE6=Be a man
TTITLE7=Lollipop (Candyman)
TTITLE8=Roses are red
TTITLE9=Turn back time
TTITLE10=Calling you
EXTD=
EXTT0=
EXTT1=
EXTT2=
EXTT3=
EXTT4=
EXTT5=
EXTT6=
EXTT7=
EXTT8=
EXTT9=
EXTT10=
PLAYORDER=
